<?xml version="1.0" encoding="UTF-8"?>
<svg version="1.1" xmlns="http://www.w3.org/2000/svg" width="1606" height="432">
<path d="M0 0 C0.02909763 3.24998112 0.04683161 6.49992857 0.0625 9.75 C0.07087891 10.67039062 0.07925781 11.59078125 0.08789062 12.5390625 C0.09111328 13.42851562 0.09433594 14.31796875 0.09765625 15.234375 C0.10289307 16.05131836 0.10812988 16.86826172 0.11352539 17.70996094 C0.00299021 19.93968135 -0.37944433 21.86133755 -1 24 C-2.04619507 23.97643433 -2.04619507 23.97643433 -3.11352539 23.95239258 C-35.17687449 23.33069465 -73.57568504 25.58849652 -98.99609375 48.046875 C-99.98802734 49.01367188 -99.98802734 49.01367188 -101 50 C-101.65097656 50.62390625 -102.30195312 51.2478125 -102.97265625 51.890625 C-112.12507682 61.45111528 -114.49892131 72.61702297 -114.265625 85.40625 C-113.86036292 95.16432528 -110.24244088 101.85695771 -103.49609375 108.8359375 C-94.74192703 116.42562195 -84.25374832 118.38525234 -73 118.3125 C-72.07864258 118.30686035 -71.15728516 118.3012207 -70.20800781 118.29541016 C-47.35537328 117.89539004 -20.86791422 109.68835983 -4.25390625 93.35546875 C-3.51011719 92.57816406 -2.76632813 91.80085938 -2 91 C-1.18402344 90.19175781 -0.36804688 89.38351563 0.47265625 88.55078125 C8.0000482 80.76743471 14.15325668 71.69348664 19 62 C33.15069059 66.42209081 43.1141171 80.65242284 50 93 C51.68594135 96.60524746 52.96168935 100.1605326 54 104 C54.35191406 105.28583984 54.35191406 105.28583984 54.7109375 106.59765625 C57.15024244 117.35277346 56.14339953 127.87044912 52 138 C51.30253662 137.98428955 50.60507324 137.9685791 49.88647461 137.95239258 C20.47943103 137.38219955 -14.41714319 138.21181325 -38.6875 157.375 C-44.4784214 163.0249919 -47.71125811 170.30140647 -48.12890625 178.36328125 C-47.64955686 188.16815524 -44.29950716 196.39889488 -37.55859375 203.5234375 C-27.32228999 212.72774333 -14.43730724 213.8735422 -1.26269531 213.1953125 C21.00836895 211.2729073 41.21872539 200.41426822 57 185 C57.66902344 184.35804688 58.33804687 183.71609375 59.02734375 183.0546875 C62.27794588 179.87968077 65.25030846 176.62959283 68 173 C86.20590429 176.7268557 101.57568404 190.04387535 111.64453125 205.15625 C126.29675568 228.3400733 131.06038232 254.45105132 125.8515625 281.2578125 C125.08995388 284.60469807 124.15667656 287.77136368 123 291 C118.83806618 290.48902991 115.61416368 288.92930895 111.92504883 287.06738281 C88.98324964 275.48861385 63.4781351 269.62724175 38 267 C37.04867187 266.88914062 36.09734375 266.77828125 35.1171875 266.6640625 C-4.88674628 262.7170077 -52.97760189 268.59781977 -85.30859375 294.59375 C-96.88142281 304.39475618 -104.96576413 316.80977138 -107 332 C-108.0243953 349.19802112 -104.53356345 365.29854441 -93.29199219 378.79223633 C-76.79075801 397.3129979 -50.15708161 405.53817171 -26 407 C25.7352427 409.21156976 73.7989614 394.07228532 112.54296875 359.24609375 C119.49941418 352.8198475 125.88059916 345.99097281 131 338 C139.34960412 341.3027323 144.19277907 352.45226655 147.78515625 360.14453125 C151.31264615 368.43583388 151.31264615 368.43583388 151 372 C149.30038042 375.05931524 146.73880181 376.88170797 144 379 C142.989375 379.83402344 141.97875 380.66804688 140.9375 381.52734375 C96.15659919 418.11772795 39.35825921 436.41507145 -18.42333984 431.484375 C-61.98860364 427.09584895 -104.93867199 409.9619363 -138 381 C-138.79019531 380.319375 -139.58039063 379.63875 -140.39453125 378.9375 C-142.97502697 376.66966531 -145.49459996 374.3506124 -148 372 C-148.52464844 371.50935059 -149.04929687 371.01870117 -149.58984375 370.51318359 C-159.18441895 361.46425831 -167.34034336 351.72603893 -175 341 C-175.45890625 340.3591748 -175.9178125 339.71834961 -176.390625 339.05810547 C-196.48037839 310.70348663 -207.86827128 278.20455708 -213 244 C-213.1038501 243.33661621 -213.2077002 242.67323242 -213.31469727 241.98974609 C-220.82142944 186.27371236 -203.86983154 129.02786462 -170.25 84.5625 C-164.91700034 77.65126253 -159.04178557 71.29159017 -153 65 C-152.51273438 64.48550293 -152.02546875 63.97100586 -151.5234375 63.44091797 C-113.00923765 22.88000763 -55.73505413 -0.41958635 0 0 Z " fill="#78549C" transform="translate(214,0)"/>
<path d="M0 0 C45.6245314 6.67676069 87.31647836 26.3944192 120.52539062 58.57226562 C121.9592092 59.96050586 123.40909281 61.3320932 124.859375 62.703125 C131.99886185 69.60059534 138.10038369 77.04579094 144 85 C144.74894531 86.00417969 145.49789062 87.00835937 146.26953125 88.04296875 C157.36085609 103.49088605 166.32833657 120.20508297 173 138 C173.27537598 138.72719238 173.55075195 139.45438477 173.83447266 140.20361328 C182.59486248 163.72834908 186.43379658 188.29069614 186.375 213.3125 C186.37445618 214.1875116 186.37391235 215.06252319 186.37335205 215.96405029 C186.330699 230.95779357 185.27903587 245.32097506 182 260 C181.68651611 261.41587402 181.68651611 261.41587402 181.36669922 262.86035156 C174.72834782 291.73096448 161.54773057 319.20002684 144 343 C141.18003826 340.50183569 139.61682075 337.72470668 137.8125 334.4375 C134.38781785 328.45514384 130.4551801 323.24298634 126 318 C125.42765625 317.30519531 124.8553125 316.61039062 124.265625 315.89453125 C121.91808475 313.0763208 120.08944006 311.05962671 117 309 C117.41597563 307.60396057 117.83284683 306.20818801 118.25 304.8125 C118.52328125 303.88695312 118.7965625 302.96140625 119.078125 302.0078125 C119.67709122 300.0535583 120.31081114 298.10950141 120.984375 296.1796875 C132.17255315 263.21759341 127.05735236 228.71502517 112 198 C99.94147223 174.53860908 81.49096038 156.99195819 57.32006836 146.46044922 C52.08845596 144.17691191 52.08845596 144.17691191 51 142 C51.43751679 140.28052842 51.92766974 138.57443419 52.4375 136.875 C57.86944798 114.19158758 53.46329395 90.9892703 42 71 C38.97658149 66.09449423 35.59357657 61.49987026 32 57 C31.28070313 56.09636719 30.56140625 55.19273438 29.8203125 54.26171875 C20.82181383 43.6645857 9.97421657 36.98495967 -2 30 C-1.34 20.1 -0.68 10.2 0 0 Z " fill="#79559C" transform="translate(245,2)"/>
<path d="M0 0 C1.02293907 -0.01029488 1.02293907 -0.01029488 2.06654358 -0.02079773 C4.32004695 -0.03908571 6.57285433 -0.03522116 8.82641602 -0.02954102 C10.40381596 -0.03410626 11.98121392 -0.03941286 13.55860901 -0.04542542 C16.86988377 -0.0543637 20.18091756 -0.05193049 23.4921875 -0.04199219 C27.70159841 -0.03058019 31.91016067 -0.05058919 36.11946011 -0.07990932 C39.38238179 -0.09842312 42.64510657 -0.09794767 45.9080677 -0.0922718 C47.4575525 -0.09212001 49.00705189 -0.098045 50.55648613 -0.11056328 C66.61722763 -0.22191441 82.291946 3.3618768 94.45922852 14.59545898 C105.40290639 26.3516605 111.81448924 40.97713092 111.32641602 57.16967773 C109.98244113 73.52613801 102.25714384 87.66936088 89.80688477 98.25952148 C88.14282227 99.40405273 88.14282227 99.40405273 86.14282227 99.40405273 C86.41843994 99.95005127 86.69405762 100.4960498 86.97802734 101.05859375 C93.84922896 114.6890974 100.5436215 128.39383497 107.08056641 142.18774414 C107.78402998 143.65546243 108.50973733 145.11274178 109.25805664 146.55810547 C110.922428 150.03059771 110.80279014 153.66423476 110.14282227 157.40405273 C107.46769316 160.97089155 105.48430239 162.67316382 101.14282227 163.40405273 C98.50343614 163.54975133 95.90741947 163.63467954 93.26782227 163.65405273 C92.22561523 163.68499023 92.22561523 163.68499023 91.16235352 163.71655273 C86.34855161 163.7528149 83.0865949 163.19435426 79.14282227 160.40405273 C73.82417702 154.03281366 70.75224735 145.66595331 67.20532227 138.21655273 C66.6048184 136.96570594 66.00390898 135.71505375 65.40258789 134.46459961 C63.6358598 130.78408136 61.88674402 127.09542141 60.14282227 123.40405273 C59.84817078 122.78270447 59.55351929 122.1613562 59.24993896 121.5211792 C58.39606868 119.71726854 57.54861905 117.91032299 56.70141602 116.10327148 C55.96169556 114.52872192 55.96169556 114.52872192 55.20703125 112.92236328 C54.14282227 110.40405273 54.14282227 110.40405273 54.14282227 108.40405273 C42.92282227 108.40405273 31.70282227 108.40405273 20.14282227 108.40405273 C20.18922852 111.72725586 20.23563477 115.05045898 20.28344727 118.47436523 C20.31466304 121.70123773 20.3389394 124.92809325 20.36254883 128.1550293 C20.38263543 130.39371295 20.40991007 132.63234432 20.44458008 134.87084961 C20.4932269 138.09298623 20.51582101 141.31442775 20.53344727 144.53686523 C20.55409241 145.53396515 20.57473755 146.53106506 20.5960083 147.55838013 C20.59791177 153.48393624 20.15054788 156.92338548 16.14282227 161.40405273 C9.46224298 164.61925525 0.9606987 164.35327011 -6.21655273 162.93920898 C-9.39260876 161.79229986 -10.76688276 160.55330259 -12.50914955 157.6734848 C-13.92895818 154.22996045 -14.23416307 151.9203608 -14.23812866 148.21813965 C-14.24658813 146.99851028 -14.25504761 145.77888092 -14.26376343 144.52229309 C-14.25793147 143.18405016 -14.25178702 141.84580857 -14.24536133 140.50756836 C-14.2494297 139.08786109 -14.25477307 137.66815699 -14.2612915 136.24845886 C-14.27493949 132.40341326 -14.26967696 128.55860981 -14.26015425 124.7135601 C-14.25254456 120.68448116 -14.25960689 116.65542256 -14.26431274 112.62634277 C-14.26976649 105.86096485 -14.26258872 99.09568525 -14.24829102 92.33032227 C-14.23196519 84.51518005 -14.23725398 76.70027265 -14.25377023 68.88513613 C-14.26739599 62.16818374 -14.26929944 55.45130194 -14.26145422 48.73434019 C-14.25678369 44.72567109 -14.25613577 40.71711227 -14.26606369 36.70845032 C-14.27474698 32.939238 -14.26868682 29.17032764 -14.25138092 25.40114784 C-14.24742332 24.02009392 -14.2485377 22.63901448 -14.25516891 21.25797081 C-14.26340245 19.36864522 -14.25123302 17.47926391 -14.23812866 15.58996582 C-14.23699759 14.53400963 -14.23586651 13.47805344 -14.23470116 12.39009857 C-13.68830757 8.06836325 -12.10060634 4.71168447 -9.09825134 1.55430603 C-5.98095004 -0.04567984 -3.49805952 0.0153536 0 0 Z M20.14282227 32.40405273 C20.14282227 46.92405273 20.14282227 61.44405273 20.14282227 76.40405273 C26.22719727 76.46592773 32.31157227 76.52780273 38.58032227 76.59155273 C41.43321899 76.63252075 41.43321899 76.63252075 44.34375 76.67431641 C45.87963225 76.68309197 47.41552157 76.69073336 48.95141602 76.69702148 C49.7258606 76.71236938 50.50030518 76.72771729 51.29821777 76.74353027 C58.20092414 76.74677861 64.53443417 75.54872739 69.95532227 71.09155273 C75.10782643 64.76133334 77.53470926 60.17043946 77.41625977 52.03295898 C76.70455619 45.19043747 73.11816519 40.85671812 67.92407227 36.63061523 C61.63200961 32.29792297 55.14453659 32.25526037 47.68188477 32.30639648 C46.98023193 32.30740356 46.2785791 32.30841064 45.55566406 32.30944824 C42.95969993 32.31464073 40.36375928 32.3286017 37.76782227 32.34155273 C29.04344727 32.37249023 29.04344727 32.37249023 20.14282227 32.40405273 Z " fill="#78559C" transform="translate(713.857177734375,134.595947265625)"/>
<path d="M0 0 C1.03713135 -0.0098568 1.03713135 -0.0098568 2.09521484 -0.01991272 C4.39184684 -0.03967443 6.68841294 -0.05132263 8.98510742 -0.0612793 C10.16608285 -0.06739259 10.16608285 -0.06739259 11.37091637 -0.07362938 C15.54854444 -0.0945152 19.72613956 -0.1087987 23.90380859 -0.11816406 C28.18942358 -0.12915592 32.47450885 -0.16346328 36.75993824 -0.20333576 C40.07772172 -0.22969522 43.39538361 -0.23787349 46.71326256 -0.24144554 C48.29068209 -0.24627206 49.86809766 -0.2577715 51.44541359 -0.27648354 C69.01989748 -0.47179395 83.0396713 3.69302478 95.98901367 15.8605957 C106.77332808 26.77373298 110.48269049 38.51159324 110.65307617 53.55200195 C110.70915039 55.37151367 110.70915039 55.37151367 110.76635742 57.2277832 C110.90880734 72.05840254 105.56271935 82.37202711 95.65307617 92.98950195 C93.27856309 95.17655348 90.83367413 97.20554067 88.27807617 99.17700195 C88.89951222 103.32086352 90.29157164 106.53997341 92.19213867 110.26293945 C92.78559082 111.4341333 93.37904297 112.60532715 93.99047852 113.81201172 C94.30345886 114.42344025 94.61643921 115.03486877 94.93890381 115.66482544 C95.90956028 117.56469331 96.87003605 119.46937566 97.82739258 121.37597656 C100.44533463 126.58817059 103.07541928 131.79294056 105.76245117 136.9699707 C109.28535692 143.89501153 112.06818761 150.29769257 110.27807617 158.17700195 C108.54269892 160.78006782 107.54646167 161.7341215 104.63354492 162.7512207 C101.2099348 163.37008223 97.80746029 163.36134162 94.34057617 163.36450195 C93.63739258 163.37674805 92.93420898 163.38899414 92.2097168 163.40161133 C88.1056845 163.41315031 84.83902917 163.27983206 81.27807617 161.17700195 C77.31822364 156.88295226 74.72916777 152.58213143 72.24682617 147.3215332 C71.88842651 146.57924973 71.53002686 145.83696625 71.1607666 145.07218933 C70.02518998 142.71504551 68.90161009 140.3524055 67.77807617 137.98950195 C67.02492556 136.42338313 66.27102525 134.85762461 65.51635742 133.29223633 C61.67197432 125.29508847 57.95090461 117.25722452 54.27807617 109.17700195 C43.38807617 108.84700195 32.49807617 108.51700195 21.27807617 108.17700195 C21.3302832 113.05352539 21.3302832 113.05352539 21.38354492 118.02856445 C21.40695795 121.18594485 21.42516463 124.34331548 21.44287109 127.50073242 C21.45793424 129.6908808 21.47838876 131.88099914 21.50439453 134.07104492 C21.54088606 137.22362698 21.55782756 140.37580932 21.57104492 143.52856445 C21.58652878 144.50379059 21.60201263 145.47901672 21.6179657 146.48379517 C21.61927277 151.79360301 21.34675173 155.6272249 18.27807617 160.17700195 C11.90411534 164.52288434 3.71433646 163.99523124 -3.72192383 163.17700195 C-7.92422609 161.5441646 -10.41307113 160.05304578 -12.72192383 156.17700195 C-13.10224056 153.37458229 -13.10224056 153.37458229 -13.10960388 150.07974243 C-13.11950851 148.82920578 -13.12941315 147.57866913 -13.13961792 146.29023743 C-13.13537988 144.90695092 -13.13082202 143.52366537 -13.12597656 142.14038086 C-13.13167972 140.68155901 -13.13864377 139.22274162 -13.14677429 137.76393127 C-13.1647289 133.80308353 -13.16353282 129.84245706 -13.15783191 125.88158083 C-13.15474277 122.57395753 -13.16082957 119.2663769 -13.16687065 115.95875967 C-13.18092238 108.1541924 -13.17934978 100.34973457 -13.16796875 92.54516602 C-13.15649191 84.49712465 -13.17055427 76.4494167 -13.19736522 68.40141928 C-13.21952929 61.48917629 -13.22615787 54.5770379 -13.22028881 47.6647619 C-13.21691909 43.53753134 -13.21933495 39.4105144 -13.23653984 35.28331375 C-13.25201784 31.40080149 -13.24804438 27.51878243 -13.2292347 23.6362896 C-13.22555085 22.21330674 -13.22865141 20.79028729 -13.23912048 19.36733818 C-13.33027103 5.95129923 -13.33027103 5.95129923 -8.72192383 1.17700195 C-5.81276819 -0.27757586 -3.24968396 0.0255274 0 0 Z M21.27807617 32.17700195 C21.27807617 46.69700195 21.27807617 61.21700195 21.27807617 76.17700195 C27.34182617 76.25950195 33.40557617 76.34200195 39.65307617 76.42700195 C42.49231689 76.48162598 42.49231689 76.48162598 45.38891602 76.53735352 C59.27993255 76.84951569 59.27993255 76.84951569 71.19360352 70.42602539 C76.64849071 64.61980648 77.755521 59.00297619 77.58276367 51.1809082 C76.93534076 44.79798233 74.45361091 40.83551071 69.52807617 36.80200195 C63.41192026 32.20203595 55.97765492 31.87948045 48.62182617 31.98168945 C47.57236816 31.98471069 47.57236816 31.98471069 46.50170898 31.98779297 C43.92709652 31.9981339 41.35257866 32.02605486 38.77807617 32.05200195 C30.11557617 32.11387695 30.11557617 32.11387695 21.27807617 32.17700195 Z " fill="#78559C" transform="translate(1495.721923828125,134.822998046875)"/>
<path d="M0 0 C0.83789062 -0.01998047 1.67578125 -0.03996094 2.5390625 -0.06054688 C8.02980138 -0.05623026 11.35020882 0.67224275 15.625 4.4375 C17.62634253 7.59907748 17.86970481 10.04949057 17.85205078 13.75683594 C17.85180908 14.83239746 17.85156738 15.90795898 17.85131836 17.01611328 C17.83597046 18.70196533 17.83597046 18.70196533 17.8203125 20.421875 C17.81829834 21.45973145 17.81628418 22.49758789 17.81420898 23.56689453 C17.80375207 27.4404747 17.77582948 31.31399183 17.75 35.1875 C17.70875 43.85 17.6675 52.5125 17.625 61.4375 C40.725 61.4375 63.825 61.4375 87.625 61.4375 C87.50642936 44.59433681 87.50642936 44.59433681 87.35473633 27.75146484 C87.34597126 25.63379368 87.33832737 23.51611745 87.33203125 21.3984375 C87.3090094 19.76032104 87.3090094 19.76032104 87.28552246 18.08911133 C87.28324899 11.47330161 87.75036435 6.81269409 92.1953125 1.59375 C96.17082829 -0.29813533 100.15576605 -0.07503747 104.5 -0.0625 C105.38558594 -0.09085938 106.27117187 -0.11921875 107.18359375 -0.1484375 C111.6132467 -0.16164064 114.67785233 -0.01221766 118.1953125 2.84375 C121.68014616 6.56389397 121.75171498 8.26509001 121.76544189 13.26301575 C121.77115204 14.50383408 121.77686218 15.7446524 121.78274536 17.02307129 C121.78399078 18.40576162 121.78511586 19.78845206 121.78613281 21.17114258 C121.79076008 22.62143582 121.79578462 24.07172784 121.80117798 25.52201843 C121.81431356 29.46839039 121.82074929 33.41474532 121.82518864 37.36113572 C121.82811774 39.82592578 121.83222226 42.29071117 121.83669281 44.75549889 C121.85037133 52.46500369 121.86003602 60.17449785 121.8638947 67.88401395 C121.86837526 76.78754056 121.8859215 85.69091363 121.9148953 94.59439355 C121.936505 101.47343919 121.94659861 108.35244161 121.94793582 115.23152083 C121.94898444 119.34140176 121.95490422 123.45113843 121.97275543 127.56098366 C121.98922369 131.42777745 121.99139779 135.29431837 121.98261642 139.16113472 C121.98184535 140.57970608 121.98619806 141.99829097 121.99607468 143.41682816 C122.00877587 145.35485529 122.0011323 147.29298382 121.99249268 149.23103333 C121.99395924 150.31522962 121.9954258 151.39942591 121.9969368 152.51647663 C121.5682317 155.88333257 120.64144225 157.72744375 118.625 160.4375 C112.42752616 164.56914923 104.83652773 163.91708436 97.625 163.4375 C94.62134214 162.83472512 93.26867368 162.16163501 90.625 160.4375 C88.07773083 156.24369909 87.25355364 153.12602472 87.28442383 148.24853516 C87.28478638 147.03109619 87.28514893 145.81365723 87.28552246 144.55932617 C87.30087036 143.29451416 87.31621826 142.02970215 87.33203125 140.7265625 C87.33505249 139.55311279 87.33807373 138.37966309 87.34118652 137.1706543 C87.35684317 132.80117964 87.39872708 128.43183068 87.4375 124.0625 C87.499375 114.28625 87.56125 104.51 87.625 94.4375 C64.525 94.4375 41.425 94.4375 17.625 94.4375 C17.74366145 114.28759839 17.74366145 114.28759839 17.89526367 134.13745117 C17.90402588 136.62678645 17.91167044 139.11612602 17.91796875 141.60546875 C17.93331665 142.89698853 17.94866455 144.1885083 17.96447754 145.51916504 C17.96484009 146.75702759 17.96520264 147.99489014 17.96557617 149.27026367 C17.97223801 150.34281906 17.97889984 151.41537445 17.98576355 152.52043152 C17.56783444 155.89973031 16.67439197 157.7353482 14.625 160.4375 C7.47550483 164.2770437 -0.75658318 164.67643294 -8.66015625 162.93359375 C-12.82418624 161.38644885 -14.48442926 159.33502565 -16.375 155.4375 C-16.75252342 152.54047394 -16.75252342 152.54047394 -16.75595093 149.28918457 C-16.7644104 148.0526564 -16.77286987 146.81612823 -16.78158569 145.54212952 C-16.77575334 144.17977773 -16.76960887 142.81742725 -16.76318359 141.45507812 C-16.7672506 140.01419172 -16.77259321 138.57330843 -16.77911377 137.13243103 C-16.79277795 133.22541326 -16.78749251 129.31863343 -16.77797651 125.41161156 C-16.77037524 121.32066588 -16.77742683 117.22974043 -16.78213501 113.13879395 C-16.7875912 106.26908719 -16.78040455 99.39947722 -16.76611328 92.52978516 C-16.74978699 84.59024502 -16.7550756 76.650936 -16.7715925 68.71140146 C-16.78521127 61.89172594 -16.78712512 55.07211994 -16.77927649 48.25243521 C-16.77460211 44.18062648 -16.77396862 40.10892636 -16.78388596 36.03712463 C-16.79255907 32.20883439 -16.78652763 28.38084182 -16.76920319 24.55258369 C-16.76524016 23.14853471 -16.76636928 21.74446063 -16.77299118 20.34042168 C-16.78120314 18.42222876 -16.76907369 16.50398103 -16.75595093 14.58581543 C-16.75481985 13.51288994 -16.75368877 12.43996445 -16.75252342 11.33452606 C-16.22122777 7.25748804 -14.48135669 4.67068295 -11.7734375 1.65234375 C-7.96077567 -0.27882535 -4.21131682 -0.0353083 0 0 Z " fill="#79549C" transform="translate(1007.375,134.5625)"/>
<path d="M0 0 C0.73347656 -0.02384766 1.46695312 -0.04769531 2.22265625 -0.07226562 C2.94324219 -0.07033203 3.66382813 -0.06839844 4.40625 -0.06640625 C5.37014648 -0.0674939 5.37014648 -0.0674939 6.35351562 -0.06860352 C10.53079018 1.15958742 13.45587605 3.78965423 15.62741089 7.47676086 C16.70049264 9.78803282 17.65100441 12.12096716 18.57421875 14.49609375 C18.93563965 15.38458008 19.29706055 16.27306641 19.66943359 17.18847656 C20.85780522 20.11959101 22.02236753 23.05957973 23.1875 26 C24.02205603 28.06916296 24.8584314 30.13759296 25.6965332 32.20532227 C27.43882775 36.50778895 29.17321791 40.81331879 30.90234375 45.12109375 C34.5356263 54.15410168 38.26956078 63.14517351 42.00082397 72.13803101 C43.97038912 76.88813488 45.93272297 81.64121954 47.89453125 86.39453125 C48.27684402 87.32074783 48.6591568 88.24696442 49.05305481 89.20124817 C53.83331683 100.78732843 58.5889393 112.3835332 63.33862305 123.98217773 C63.64750458 124.73605774 63.95638611 125.48993774 64.27462769 126.2666626 C64.86792398 127.71532423 65.46057813 129.16424906 66.05252075 130.61346436 C68.17691869 135.80609538 70.36687402 140.96883007 72.60180664 146.11499023 C74.00847467 149.94805547 74.13878109 152.51688643 73.5 156.5625 C71.62657162 159.87702714 70.33507779 161.21556535 66.8203125 162.67578125 C63.09904085 163.66957968 59.84931472 163.86326428 56 163.875 C54.09734375 163.90013672 54.09734375 163.90013672 52.15625 163.92578125 C48.15675528 163.52839556 45.86740994 162.73334433 42.5 160.5625 C38.5 155.5625 38.5 155.5625 29.5 132.5625 C-0.695 132.0675 -0.695 132.0675 -31.5 131.5625 C-31.995 134.5325 -31.995 134.5325 -32.5 137.5625 C-33.55633984 140.98369795 -34.87867089 144.29321342 -36.1875 147.625 C-36.51427734 148.50994141 -36.84105469 149.39488281 -37.17773438 150.30664062 C-39.39266865 155.95197024 -41.37941688 159.2270743 -46.5 162.5625 C-50.08521909 164.05512183 -54.03334531 163.76649216 -57.875 163.8125 C-59.80472656 163.85117187 -59.80472656 163.85117187 -61.7734375 163.890625 C-66.52176874 163.47253294 -69.83333542 162.06249812 -73.375 158.875 C-75.26421702 154.99160946 -75.07536321 150.71121571 -73.97302246 146.59448242 C-73.21096532 144.52795283 -72.368972 142.51712098 -71.484375 140.5 C-71.16163605 139.73229782 -70.83889709 138.96459564 -70.50637817 138.17362976 C-69.43395951 135.63084026 -68.3419087 133.0969739 -67.25 130.5625 C-66.48305427 128.75298807 -65.71762538 126.9428326 -64.95361328 125.13208008 C-63.32515885 121.27632873 -61.68975222 117.42363024 -60.04980469 113.57275391 C-56.19430768 104.50422436 -52.42360063 95.40034528 -48.64306641 86.30038452 C-46.53952709 81.24023645 -44.42972776 76.18270071 -42.3203125 71.125 C-38.93220844 62.99942524 -35.54560595 54.873228 -32.16340637 46.74519348 C-30.57872352 42.93752873 -28.99173604 39.13087059 -27.39819336 35.3269043 C-24.88628001 29.32674642 -22.38905511 23.3247874 -20.01171875 17.26953125 C-19.4717627 15.91661987 -19.4717627 15.91661987 -18.92089844 14.53637695 C-18.300132 12.97475176 -17.69334579 11.40742937 -17.10644531 9.83276367 C-13.77475323 1.52698173 -8.22961133 -0.12293795 0 0 Z M-0.5 56.5625 C-4.29623012 64.64822564 -7.70602499 72.85757632 -11.00415039 81.15478516 C-11.82559395 83.22042667 -12.65179067 85.28412354 -13.47851562 87.34765625 C-16.17117392 92.83785411 -16.17117392 92.83785411 -17.5 98.5625 C-6.28 98.5625 4.94 98.5625 16.5 98.5625 C11.26949399 84.5227207 5.89228799 70.54084655 0.5 56.5625 C0.17 56.5625 -0.16 56.5625 -0.5 56.5625 Z " fill="#78559C" transform="translate(1253.5,134.4375)"/>
<path d="M0 0 C-0.48591829 4.26190831 -3.16598804 6.72316141 -6 9.6875 C-6.49983398 10.21786865 -6.99966797 10.7482373 -7.51464844 11.29467773 C-8.53157377 12.3694492 -9.55206088 13.44086234 -10.57617188 14.50878906 C-11.8004005 15.79095443 -13.00387894 17.0928753 -14.203125 18.3984375 C-37.90717128 43.45958566 -74.65200903 57.29553207 -108.67749023 59.20654297 C-112.41255561 59.30193999 -116.13877855 59.32911185 -119.875 59.3125 C-121.18911865 59.30758545 -122.5032373 59.3026709 -123.85717773 59.29760742 C-142.34847842 59.07437931 -163.29666353 55.9187353 -176.91015625 42.0546875 C-182.86827129 34.58874482 -184.58661879 27.63517323 -184.35546875 18.125 C-183.49312814 10.5439836 -179.08351841 4.52567391 -173.2578125 -0.24609375 C-165.53259993 -5.64988957 -157.89667875 -9.72479641 -149 -13 C-147.81277344 -13.44085938 -146.62554687 -13.88171875 -145.40234375 -14.3359375 C-98.49018901 -30.34525608 -43.33840954 -22.88809754 0 0 Z " fill="#78549C" transform="translate(321,318)"/>
<path d="M0 0 C1.09163956 -0.01022186 2.18327911 -0.02044373 3.30799866 -0.03097534 C6.91600486 -0.05877149 10.52324712 -0.05685364 14.13134766 -0.05224609 C16.64092289 -0.06002009 19.1504955 -0.06868944 21.6600647 -0.07821655 C26.92074069 -0.09314199 32.18121913 -0.09283488 37.44189453 -0.08203125 C43.51169945 -0.06995702 49.58057651 -0.09456248 55.65022314 -0.13717139 C61.5016968 -0.1767294 67.35280844 -0.18274173 73.20439529 -0.17570114 C75.68828128 -0.17672736 78.17218212 -0.1871991 80.65598679 -0.20732498 C84.13205919 -0.23203288 87.60599245 -0.21848726 91.08203125 -0.1953125 C92.10564255 -0.21059998 93.12925385 -0.22588745 94.18388367 -0.24163818 C100.15313312 -0.15378601 103.5327071 0.75400851 107.93132973 4.87236977 C111.5050457 9.70896539 110.5870252 16.86549687 110.17041016 22.54931641 C109.30042719 26.20836239 107.95549569 28.81329872 105.17041016 31.42431641 C100.79049493 33.88801872 96.65708225 33.67865759 91.78369141 33.64697266 C90.96668259 33.64555771 90.14967377 33.64414276 89.3079071 33.64268494 C86.69953748 33.63708935 84.09125382 33.62453769 81.48291016 33.61181641 C79.71403119 33.60680083 77.94515087 33.60223803 76.17626953 33.59814453 C71.84094997 33.58712137 67.50569464 33.56985978 63.17041016 33.54931641 C63.17317554 34.16223352 63.17594091 34.77515064 63.17879009 35.40664101 C63.24508364 50.32993336 63.29470713 65.25321148 63.32584667 80.17661476 C63.34130634 87.39351316 63.36237854 94.61031319 63.39672852 101.82714844 C63.42665857 108.11837658 63.44599171 114.40953346 63.45267564 120.70083082 C63.45658185 124.03113053 63.46732322 127.36117922 63.48760033 130.69142532 C63.50935411 134.4119199 63.51237785 138.1319912 63.51098633 141.85253906 C63.52177216 142.95305603 63.53255798 144.053573 63.54367065 145.18743896 C63.52125018 150.72159951 63.3598789 154.79996031 60.17041016 159.54931641 C55.03530446 164.35312496 49.0101724 163.82454436 42.31103516 163.77197266 C37.67873118 163.44356305 34.86686136 161.95327602 31.35791016 159.04931641 C29.01515737 156.09004972 29.04641532 153.20433264 29.05015564 149.59492493 C29.04878098 148.57268829 29.04740631 147.55045166 29.04598999 146.49723816 C29.0513829 144.81625786 29.0513829 144.81625786 29.05688477 143.10131836 C29.05673874 141.92069824 29.05659271 140.74007812 29.05644226 139.52368164 C29.05701992 136.28634199 29.06203833 133.04904546 29.06901622 129.81171441 C29.07526368 126.42844851 29.07585466 123.04518179 29.07704163 119.66191101 C29.08015083 113.25525425 29.08835869 106.84861453 29.09839112 100.44196528 C29.109565 93.14820372 29.11506592 85.85444135 29.12008655 78.56067336 C29.13054163 63.55687821 29.14813314 48.55309901 29.17041016 33.54931641 C28.04546143 33.56502686 26.9205127 33.5807373 25.76147461 33.59692383 C21.57762851 33.65132857 17.39381354 33.68570477 13.2097168 33.71411133 C11.40074399 33.72917395 9.59180756 33.74962817 7.78295898 33.77563477 C5.17894501 33.8121296 2.57541495 33.82906798 -0.02880859 33.84228516 C-0.83420578 33.85776901 -1.63960297 33.87325287 -2.46940613 33.88920593 C-7.11087511 33.89058903 -10.02725388 33.5014798 -13.82958984 30.54931641 C-18.29009809 25.77020043 -18.07070582 20.27731032 -17.97802734 14.04931641 C-17.70337568 9.42360411 -17.0286448 5.9093619 -13.92440796 2.38833618 C-9.35099055 -0.32930496 -5.23024619 -0.02521749 0 0 Z " fill="#79559C" transform="translate(541.82958984375,134.45068359375)"/>
<path d="M0 0 C1.34191406 -0.04350586 1.34191406 -0.04350586 2.7109375 -0.08789062 C8.36200787 -0.14206755 11.91053278 0.30736281 16.25 4.3125 C18.14362328 8.07873639 18.5009625 11.15963117 18.50396729 15.34692383 C18.50960693 16.55820953 18.51524658 17.76949524 18.52105713 19.01748657 C18.51716892 20.35150207 18.51307261 21.68551697 18.50878906 23.01953125 C18.51150048 24.43085918 18.51506227 25.84218569 18.51940918 27.25350952 C18.5285175 31.07990878 18.52499537 34.90620005 18.51865101 38.73260117 C18.51358296 42.73946165 18.5182847 46.74631297 18.52142334 50.75317383 C18.52506063 57.48162494 18.52027009 64.21003212 18.51074219 70.93847656 C18.49985808 78.71437888 18.50338383 86.49017631 18.514395 94.26607609 C18.52347461 100.9456144 18.52474985 107.62512117 18.51951766 114.30466366 C18.51640167 118.2926143 18.51597843 122.28051567 18.52259064 126.26846313 C18.52837327 130.01789885 18.52435044 133.76719949 18.51280212 137.51662064 C18.51016045 138.89164633 18.51091224 140.26668342 18.51532745 141.64170456 C18.52080349 143.52049093 18.51271471 145.39930218 18.50396729 147.27807617 C18.50321323 148.32887863 18.50245918 149.37968109 18.50168228 150.46232605 C18.1112504 154.88376868 17.10338553 157.5040295 13.875 160.5625 C9.43978655 163.51930897 5.59572631 163.47180776 0.3125 163.5 C-0.89277344 163.51417969 -2.09804687 163.52835938 -3.33984375 163.54296875 C-8.02604529 163.22626097 -10.57234804 162.53328228 -13.8625412 159.12258911 C-16.10466613 155.78446547 -16.25244249 154.03815095 -16.25793457 150.05029297 C-16.26921387 148.78852234 -16.28049316 147.52675171 -16.29211426 146.22674561 C-16.28433773 144.83605726 -16.2761451 143.4453712 -16.26757812 142.0546875 C-16.27300064 140.58424181 -16.28012404 139.11380156 -16.28881836 137.64337158 C-16.30703952 133.65572007 -16.29998938 129.66848295 -16.28730202 125.68082428 C-16.27716801 121.50579215 -16.28656881 117.33079526 -16.29284668 113.15576172 C-16.30012193 106.14479204 -16.29053865 99.13399095 -16.27148438 92.12304688 C-16.24971578 84.01985348 -16.25676724 75.91706266 -16.27879 67.81387901 C-16.29694754 60.85406234 -16.29950061 53.89436679 -16.28903532 46.93453407 C-16.28280231 42.77885973 -16.28195938 38.62337456 -16.29518127 34.4677124 C-16.30674441 30.56054611 -16.29870612 26.65389836 -16.27560425 22.74678802 C-16.27031955 21.31371674 -16.27182692 19.88060175 -16.28065491 18.44754791 C-16.29160151 16.48995024 -16.27543362 14.5322571 -16.25793457 12.57470703 C-16.25642647 11.47965851 -16.25491837 10.38460999 -16.25336456 9.25637817 C-15.63099744 5.61652523 -14.28795531 3.94485381 -11.75 1.3125 C-8.1450387 -0.48998065 -3.97001652 0.0421744 0 0 Z " fill="#79549C" transform="translate(1395.75,134.6875)"/>
<path d="M0 0 C0.90298828 -0.020625 1.80597656 -0.04125 2.73632812 -0.0625 C7.68228265 -0.09157247 11.23150495 -0.07645556 15.1875 3.25 C18.20511591 7.77642387 18.31243685 11.80875595 18.32794189 17.15707397 C18.33365204 18.3402269 18.33936218 19.52337982 18.34524536 20.74238586 C18.34636322 22.0318663 18.34748108 23.32134674 18.34863281 24.64990234 C18.35326465 26.02842846 18.3582898 27.40695331 18.36367798 28.78547668 C18.37676672 32.52313425 18.38323976 36.26077387 18.38768864 39.99845076 C18.3906244 42.33546278 18.39473011 44.67246995 18.39919281 47.00947952 C18.412857 54.32706916 18.42252954 61.64464765 18.4263947 68.96224916 C18.43087623 77.39935511 18.44843296 85.83629912 18.4773953 94.27335584 C18.49902823 100.80260243 18.5090998 107.3318035 18.51043582 113.86108553 C18.51148248 117.75748405 18.51736082 121.65373011 18.53525543 125.55009079 C18.55176464 129.21584461 18.55387796 132.8813318 18.54511642 136.5471096 C18.54398219 138.52694516 18.55767656 140.50677199 18.5718689 142.48655701 C18.54217858 148.8242574 18.39468274 153.70645289 15.1875 159.25 C10.79905439 163.49688285 6.14107412 163.40606417 0.25 163.4375 C-0.95527344 163.45167969 -2.16054688 163.46585938 -3.40234375 163.48046875 C-8.08854529 163.16376097 -10.63484804 162.47078228 -13.9250412 159.06008911 C-16.16716613 155.72196547 -16.31494249 153.97565095 -16.32043457 149.98779297 C-16.33171387 148.72602234 -16.34299316 147.46425171 -16.35461426 146.16424561 C-16.34683773 144.77355726 -16.3386451 143.3828712 -16.33007812 141.9921875 C-16.33550064 140.52174181 -16.34262404 139.05130156 -16.35131836 137.58087158 C-16.36953952 133.59322007 -16.36248938 129.60598295 -16.34980202 125.61832428 C-16.33966801 121.44329215 -16.34906881 117.26829526 -16.35534668 113.09326172 C-16.36262193 106.08229204 -16.35303865 99.07149095 -16.33398438 92.06054688 C-16.31221578 83.95735348 -16.31926724 75.85456266 -16.34129 67.75137901 C-16.35944754 60.79156234 -16.36200061 53.83186679 -16.35153532 46.87203407 C-16.34530231 42.71635973 -16.34445938 38.56087456 -16.35768127 34.4052124 C-16.36924441 30.49804611 -16.36120612 26.59139836 -16.33810425 22.68428802 C-16.33281955 21.25121674 -16.33432692 19.81810175 -16.34315491 18.38504791 C-16.35410151 16.42745024 -16.33793362 14.4697571 -16.32043457 12.51220703 C-16.31892647 11.41715851 -16.31741837 10.32210999 -16.31586456 9.19387817 C-15.69349744 5.55402523 -14.35045531 3.88235381 -11.8125 1.25 C-8.19771286 -0.55739357 -3.98017454 0.02243932 0 0 Z " fill="#78559C" transform="translate(903.8125,134.75)"/>
<path d="M0 0 C-4.31756648 12.25491091 -15.18217165 21.08230829 -26.52075195 26.57568359 C-38.6204389 32.17196879 -53.94487239 36.80845297 -67.4375 34.375 C-71 33 -71 33 -72.23046875 31.12890625 C-73.43395614 27.79946145 -72.83382174 25.39484567 -72 22 C-62.83780569 8.92860278 -44.25781152 4.16794012 -29.30859375 1.5234375 C-28.21675781 1.35070313 -27.12492187 1.17796875 -26 1 C-25.22785156 0.86851563 -24.45570313 0.73703125 -23.66015625 0.6015625 C-15.86538732 -0.50556399 -7.85282995 -0.0811429 0 0 Z " fill="#78549C" transform="translate(202,54)"/>
<path d="M0 0 C-8.41866679 9.17540088 -21.59720761 14.40399774 -33.91015625 15.27734375 C-44.23314496 15.6029707 -44.23314496 15.6029707 -46.9375 13.4765625 C-47.288125 12.98929688 -47.63875 12.50203125 -48 12 C-37.55927683 1.55927683 -14.05577582 -0.55509411 0 0 Z " fill="#78559C" transform="translate(244,168)"/>
</svg>
